# xmcd CD database file
#
# Track frame offsets:
#	150
#	10847
#	19442
#	31262
#	49232
#	60827
#	70322
#	81467
#	90137
#	102782
#	115502
#	126722
#	140417
#	154562
#	166907
#	177677
#	190172
#	200342
#	211037
#	222932
#	233402
#	244472
#	253892
#	263312
#	274082
#
# Disc length: 3820 seconds
#
# Revision: 0
# Processed by: cddbd v1.5.2PL0 Copyright (c) Steve Scherf et al.
# Submitted via: CDex 1.51
#
DISCID=570eea19
DTITLE=Various Artist - Country Western Disc 40
DYEAR=2012
DGENRE=Country
TTITLE0=Hank Lockin-Please Help Me I'm Falling-Stereo
TTITLE1=Don Gibson-Everybody But Me-Stereo
TTITLE2=George Jones-The Window Up Above-Mono
TTITLE3=Marty Robbins-Big Iron-Stereo
TTITLE4=Charlie Ryan-Hot Rod Lincoln-Mono
TTITLE5=Bob Luman-Let's Think About Living-Stereo
TTITLE6=Johnny Cash-Mean Eyed Cat-Mono
TTITLE7=Johnny Horton-Snow Shoe Thompson-Stereo
TTITLE8=Skeeter Davis-I'm Falling Too-Stereo
TTITLE9=Ray Price-One More Time-Stereo
TTITLE10=Buck Owens-Above and Beyond-Stereo
TTITLE11=Claude Gray-Family Bible-Mono
TTITLE12=Johnny Horton-Comanche The Brave Horse-Stereo
TTITLE13=Carl Smith-Cut Across Shorty-Stereo
TTITLE14=Bob Luman-Jealous Heart-Stereo
TTITLE15=John D Loudermilk-Tobacco Road-Stereo
TTITLE16=Don Gibson-Hurtin' Inside-Stereo
TTITLE17=Cowboy Copas-Alabam-Mono
TTITLE18=Lester Flatt and Earl Scruggs-Crying My Heart Out Over You-Mo
TTITLE19=Loretta Lynn-I'm A Honky Tonk Girl-Mono
TTITLE20=Floyd Cramer-Last Date-Stereo
TTITLE21=Skeeter Davis-Am I That Easy To Forget-Stereo
TTITLE22=Bob Luman-Everytime The World Goes Round-Stereo
TTITLE23=Johnny Horton-Sinking Of The Rueben James-Stereo
TTITLE24=Don Gibson-Just One Time-Stereo
EXTD=YEAR: 2012
EXTT0=
EXTT1=
EXTT2=
EXTT3=
EXTT4=
EXTT5=
EXTT6=
EXTT7=
EXTT8=
EXTT9=
EXTT10=
EXTT11=
EXTT12=
EXTT13=
EXTT14=
EXTT15=
EXTT16=
EXTT17=
EXTT18=
EXTT19=
EXTT20=
EXTT21=
EXTT22=
EXTT23=
EXTT24=
PLAYORDER=
